<svg width="14" height="14" viewBox="0 0 14 14" fill="none" xmlns="http://www.w3.org/2000/svg">
<path d="M11.9958 9.12261L10.1576 8.91275C9.7162 8.86209 9.28199 9.01406 8.97081 9.32524L7.63924 10.6568C5.59123 9.61472 3.91229 7.94301 2.8702 5.88775L4.209 4.54894C4.52018 4.23775 4.67216 3.80355 4.6215 3.3621L4.41163 1.53842C4.32479 0.807499 3.70966 0.2575 2.97151 0.2575H1.71955C0.90179 0.2575 0.221532 0.937761 0.27219 1.75552C0.655739 7.93577 5.59847 12.8713 11.7714 13.2548C12.5892 13.3055 13.2695 12.6252 13.2695 11.8075V10.5555C13.2767 9.82459 12.7267 9.20946 11.9958 9.12261Z" fill="#212121"/>
</svg>
